<svg xmlns="http://www.w3.org/2000/svg" width="88" height="96" viewBox="0 0 88 96">
    <path d="M1 60c16.3-4.484 38.04 2.02 44 24 7.94-23.756 31.812-28.2 44-24-9.868 6.1-13.988 36-44 36S11.052 66.116 1 60zm32.812-48.324a11.734 11.734 0 0 1 23.468 0A11.734 11.734 0 0 1 69.012 32 11.734 11.734 0 0 1 57.28 52.324a11.734 11.734 0 0 1-23.468 0A11.734 11.734 0 0 1 22.08 32a11.734 11.734 0 0 1 11.732-20.324zM45 22a10 10 0 1 1-10 10 10 10 0 0 1 10-10z" transform="translate(-1)" style="fill:#a0a0a0;fill-rule:evenodd"/>
</svg>
